<!-- Generated by IcoMoon.io -->
<svg version="1.1" xmlns="http://www.w3.org/2000/svg" width="32" height="32" viewBox="0 0 32 32">
<title>icon_search</title>
<path fill="#214b99" d="M31.414 29.090l-7-7.011c-0.144-0.143-0.313-0.261-0.501-0.345l-0.011-0.004c1.772-2.228 2.844-5.083 2.844-8.189 0-7.296-5.915-13.211-13.211-13.211s-13.211 5.915-13.211 13.211c0 7.296 5.915 13.211 13.211 13.211 3.109 0 5.967-1.074 8.223-2.87l-0.027 0.021c0.080 0.186 0.195 0.358 0.347 0.51l7 7.011c0.299 0.299 0.712 0.484 1.168 0.484 0.912 0 1.651-0.739 1.651-1.651 0-0.456-0.185-0.868-0.483-1.167v0zM13.534 23.448c-5.473 0-9.91-4.437-9.91-9.91s4.437-9.91 9.91-9.91v0c5.473 0 9.91 4.437 9.91 9.91s-4.437 9.91-9.91 9.91v0z"></path>
</svg>
